<?xml version="1.0" standalone="no"?>
<!DOCTYPE svg PUBLIC "-//W3C//DTD SVG 20010904//EN"
 "http://www.w3.org/TR/2001/REC-SVG-20010904/DTD/svg10.dtd">
<svg version="1.0" xmlns="http://www.w3.org/2000/svg"
 width="1024.000000pt" height="1024.000000pt" viewBox="0 0 1024.000000 1024.000000"
 preserveAspectRatio="xMidYMid meet">

<g transform="translate(0.000000,1024.000000) scale(0.100000,-0.100000)"
fill="#000000" stroke="none">
<path d="M2544 7425 c15 -22 269 -349 441 -567 l69 -88 761 0 c738 0 763 -1
835 -21 100 -27 172 -70 250 -149 139 -140 193 -349 141 -553 -54 -211 -198
-356 -416 -419 -80 -23 -81 -23 -652 -21 -315 2 -573 1 -573 -2 0 -3 64 -87
143 -188 130 -165 278 -355 576 -737 245 -316 654 -837 774 -987 l129 -163
392 2 c215 1 360 4 321 8 l-70 6 58 2 c54 2 57 3 47 21 -13 25 -13 34 0 26 16
-10 11 1 -7 16 -15 12 -16 12 -8 -1 5 -9 0 -8 -13 4 -26 23 -30 44 -4 25 14
-11 13 -10 -2 9 -21 24 -31 29 -20 10 4 -7 -2 -4 -14 6 -26 23 -30 44 -4 25
14 -11 14 -10 -2 8 -10 13 -23 20 -27 17 -5 -3 -7 1 -4 8 2 7 -9 29 -26 48
-17 19 -27 29 -23 21 5 -9 3 -12 -5 -7 -6 4 -9 12 -6 17 8 12 -66 100 -78 92
-6 -3 -7 -1 -3 6 10 15 -13 43 -27 34 -6 -3 -7 -1 -3 5 5 9 -92 138 -490 647
-224 285 -274 351 -274 356 0 4 17 10 38 13 20 4 66 16 102 28 445 143 783
534 867 1002 24 134 21 352 -7 485 -98 477 -434 822 -913 940 -48 12 -143 26
-210 31 -67 5 -562 10 -1101 10 l-978 0 16 -25z m3101 -3675 c10 -11 16 -20
13 -20 -3 0 -13 9 -23 20 -10 11 -16 20 -13 20 3 0 13 -9 23 -20z m-58 -206
c-3 -3 -12 -4 -19 -1 -8 3 -5 6 6 6 11 1 17 -2 13 -5z"/>
<path d="M5980 5488 l0 -1958 133 2 132 2 -127 3 -128 4 2 37 1 37 4 -33 4
-33 345 2 344 2 2 141 2 141 6 -145 c3 -80 7 243 8 718 l2 862 763 0 c495 0
757 4 747 10 -10 6 -11 10 -2 10 9 0 12 70 12 315 l0 315 -760 0 -760 0 0 424
0 425 108 3 c59 2 455 3 880 3 l772 0 -2 331 -3 332 -1242 4 -1243 4 0 -1958z
m1787 -204 c-3 -3 -12 -4 -19 -1 -8 3 -5 6 6 6 11 1 17 -2 13 -5z m146 -1
c-23 -2 -64 -2 -90 0 -26 2 -7 3 42 3 50 0 71 -1 48 -3z m144 0 c-20 -2 -52
-2 -70 0 -17 2 0 4 38 4 39 0 53 -2 32 -4z m101 0 c-10 -2 -28 -2 -40 0 -13 2
-5 4 17 4 22 1 32 -1 23 -4z"/>
<path d="M2773 6320 c-26 -39 -84 -123 -129 -188 -44 -64 -139 -202 -210 -307
-72 -104 -210 -306 -307 -447 -98 -141 -177 -260 -177 -263 0 -4 44 -69 97
-144 206 -291 555 -784 677 -958 l127 -183 266 0 c146 0 263 4 261 9 -1 5
-165 241 -363 525 -198 284 -396 569 -439 632 l-80 115 91 132 c78 115 214
314 666 979 59 86 107 159 107 162 0 4 -121 6 -269 6 l-270 0 -48 -70z"/>
<path d="M5780 3576 c0 -2 8 -10 18 -17 15 -13 16 -12 3 4 -13 16 -21 21 -21
13z"/>
<path d="M6323 3533 c9 -2 23 -2 30 0 6 3 -1 5 -18 5 -16 0 -22 -2 -12 -5z"/>
<path d="M6428 3533 c7 -3 16 -2 19 1 4 3 -2 6 -13 5 -11 0 -14 -3 -6 -6z"/>
<path d="M6503 3533 c9 -2 23 -2 30 0 6 3 -1 5 -18 5 -16 0 -22 -2 -12 -5z"/>
<path d="M6588 3533 c12 -2 30 -2 40 0 9 3 -1 5 -23 4 -22 0 -30 -2 -17 -4z"/>
<path d="M6663 3533 c9 -2 25 -2 35 0 9 3 1 5 -18 5 -19 0 -27 -2 -17 -5z"/>
<path d="M5598 3173 c195 -2 510 -2 700 0 191 1 32 2 -353 2 -385 0 -541 -1
-347 -2z"/>
<path d="M5293 3121 c44 -40 68 -80 30 -50 -15 11 -15 10 1 -8 10 -13 22 -20
27 -18 4 3 20 -10 34 -29 16 -21 32 -33 41 -29 8 3 14 0 14 -7 0 -6 -5 -8 -11
-4 -8 5 -8 1 0 -14 14 -27 14 -35 -1 -26 -7 4 -9 3 -5 -1 4 -5 14 -10 22 -11
12 -2 12 2 5 17 -10 17 -7 19 30 19 39 0 40 -1 36 -32 -2 -20 -9 -33 -17 -33
-8 0 -13 6 -11 13 1 6 -3 12 -9 12 -6 0 -8 -7 -5 -16 3 -9 6 -18 6 -20 0 -2 9
-4 20 -4 15 0 20 -7 20 -26 0 -24 -2 -25 -17 -13 -16 13 -17 12 -5 -3 11 -14
36 -16 180 -17 92 0 161 3 155 5 -18 8 -16 24 5 40 16 13 16 14 -3 7 -16 -5
-18 -4 -10 8 6 8 2 7 -7 -4 -10 -10 -22 -16 -27 -13 -5 4 -11 0 -14 -6 -2 -7
-8 -10 -12 -5 -5 4 -3 13 3 19 20 20 13 29 -6 11 -11 -10 -17 -21 -15 -25 2
-5 0 -8 -4 -8 -5 0 -13 13 -19 28 -9 23 -8 29 3 29 8 0 12 -6 9 -13 -3 -8 0
-11 8 -8 19 7 8 41 -12 41 -9 0 -25 -7 -34 -15 -23 -19 -24 -6 -2 16 16 15 15
17 -15 24 -17 5 -31 13 -31 19 0 6 5 7 11 4 6 -4 5 2 -3 14 -12 20 -14 20 -27
4 -12 -17 -13 -16 -8 4 4 17 -2 24 -24 33 -28 12 -40 30 -19 30 6 0 10 -4 10
-10 0 -5 5 -10 11 -10 5 0 7 6 3 13 -6 10 -4 10 7 0 7 -7 19 -13 25 -13 18 0
28 40 14 54 -10 8 -11 6 -5 -11 5 -18 3 -22 -8 -17 -8 3 -13 13 -10 23 3 11
-2 21 -12 25 -13 5 -16 2 -11 -9 3 -9 2 -13 -3 -10 -5 3 -11 0 -14 -7 -2 -7
-2 0 1 17 4 26 3 28 -11 16 -9 -7 -21 -10 -27 -6 -7 4 -35 9 -63 11 -31 2 -56
10 -63 19 -14 18 -144 22 -144 4 0 -8 -6 -7 -17 1 -10 7 3 -6 30 -29z m127
-91 c0 -5 0 -12 0 -15 0 -14 -13 -8 -16 8 -1 9 2 17 7 17 5 0 9 -4 9 -10z
m100 -11 c0 -11 -7 -19 -17 -19 -9 0 -13 3 -10 7 4 3 3 11 -3 17 -6 8 -3 12
11 13 13 1 19 -5 19 -18z m40 -5 c0 -8 -8 -14 -17 -14 -14 0 -15 2 -4 9 8 5
10 14 6 21 -5 9 -4 11 3 6 7 -4 12 -14 12 -22z m40 1 c0 -12 -19 -12 -23 0 -4
9 -1 12 9 8 7 -3 14 -7 14 -8z m37 -87 c-3 -7 -5 -2 -5 12 0 14 2 19 5 13 2
-7 2 -19 0 -25z m36 -63 c-3 -9 -8 -14 -10 -11 -3 3 -2 9 2 15 9 16 15 13 8
-4z m37 -28 c10 -4 8 -6 -7 -6 -16 -1 -23 5 -23 17 0 10 3 13 8 6 4 -6 14 -14
22 -17z m100 3 c0 -5 -12 -10 -27 -10 -22 0 -25 2 -13 10 20 13 40 13 40 0z"/>
<path d="M5280 3116 c0 -2 8 -10 18 -17 15 -13 16 -12 3 4 -13 16 -21 21 -21
13z"/>
<path d="M5660 3110 c0 -5 5 -10 11 -10 5 0 7 5 4 10 -3 6 -8 10 -11 10 -2 0
-4 -4 -4 -10z"/>
<path d="M5702 3058 c2 -8 -4 -12 -15 -10 -16 3 -17 0 -7 -17 8 -16 8 -21 -2
-21 -7 0 -2 -8 11 -17 23 -16 23 -17 5 -24 -16 -6 -15 -8 8 -8 15 -1 30 -5 33
-11 3 -5 12 -10 18 -10 7 0 6 4 -3 10 -8 5 -15 17 -15 27 0 12 -6 17 -19 15
-10 -2 -15 1 -12 7 4 5 1 13 -4 16 -8 5 -6 13 5 25 11 12 13 20 5 25 -6 4 -9
1 -8 -7z"/>
<path d="M5720 3025 c0 -8 2 -15 4 -15 2 0 6 7 10 15 3 8 1 15 -4 15 -6 0 -10
-7 -10 -15z"/>
<path d="M5478 2943 c7 -3 16 -2 19 1 4 3 -2 6 -13 5 -11 0 -14 -3 -6 -6z"/>
<path d="M5850 2830 c0 -5 5 -10 11 -10 5 0 7 5 4 10 -3 6 -8 10 -11 10 -2 0
-4 -4 -4 -10z"/>
<path d="M5808 2803 c156 -2 408 -2 560 0 152 1 25 2 -283 2 -308 0 -433 -1
-277 -2z"/>
</g>
</svg>
